Coordinates
version=1
nRows=13
nColumns=34
inDegrees=yes

Units are S.I. units (second, meters, Newtons, ...)
If the header above contains a line with 'inDegrees', this indicates whether rotational values are in degrees (yes) or radians (no).

endheader
time	pelvis_tilt	pelvis_list	pelvis_rotation	pelvis_tx	pelvis_ty	pelvis_tz	hip_flexion_r	hip_adduction_r	hip_rotation_r	knee_angle_r	ankle_angle_r	subtalar_angle_r	mtp_angle_r	hip_flexion_l	hip_adduction_l	hip_rotation_l	knee_angle_l	ankle_angle_l	subtalar_angle_l	mtp_angle_l	lumbar_extension	lumbar_bending	lumbar_rotation	arm_flex_r	arm_add_r	arm_rot_r	elbow_flex_r	pro_sup_r	arm_flex_l	arm_add_l	arm_rot_l	elbow_flex_l	pro_sup_l
     14.33333330	     19.00597234	     -7.41843607	    160.27144120	      0.14929917	      1.10622830	     -0.21979172	     16.90526337	     -2.36958310	     -6.26144267	     74.72262538	    -10.45926434	    -27.57841436	      0.00000000	     17.81994369	     -8.03707342	      4.80072661	     76.74291546	    -13.21691350	    -21.62005078	      0.00000000	    -20.22295180	      2.23692988	     -1.12590721	    176.13350036	    197.30831719	    123.90002642	    150.00035077	     98.17744835	    189.05463050	    205.32545509	   -231.16355172	    149.79071281	     97.95413290
     14.35000000	     19.16078433	     -7.47257775	    160.27859305	      0.14795229	      1.10597323	     -0.22047544	     16.89027988	     -2.37335127	     -6.36238835	     74.51306548	    -10.79535427	    -27.53338230	      0.00000000	     17.79026600	     -8.12634376	      4.59995984	     76.51939154	    -13.66804241	    -21.47440570	      0.00000000	    -20.15528946	      2.20164843	     -1.15221796	    176.25578765	    197.42042639	    123.92102173	    150.00035077	     98.18415150	    189.14140427	    205.34699097	   -231.18712626	    149.83207549	     97.95764913
     14.36666670	     19.31291167	     -7.53315374	    160.32036744	      0.14701413	      1.10575804	     -0.22092749	     16.98217296	     -2.32667267	     -6.40029373	     74.40840594	    -10.84003728	    -27.54280432	      0.00000000	     17.81262655	     -8.11098207	      4.54542635	     76.31434303	    -13.72176608	    -21.48027312	      0.00000000	    -20.31276782	      2.21226584	     -1.15201484	    176.29822480	    197.44654100	    123.93885884	    150.00035077	     98.18661249	    189.16886326	    205.34522006	   -231.17553350	    149.82347427	     97.95974311
     14.38333330	     19.45931444	     -7.56611111	    160.26695360	      0.14618074	      1.10568088	     -0.22146975	     17.11639492	     -2.18510898	     -6.30847944	     74.28073011	    -11.45125206	    -27.74801272	      0.00000000	     17.84083269	     -8.14615050	      4.40596937	     76.15424511	    -14.37324617	    -21.88475668	      0.00000000	    -20.42663399	      2.20736591	     -1.08819721	    176.71720437	    197.62842654	    124.05311220	    150.00035077	     98.20480746	    189.45682025	    205.27874306	   -231.16138793	    150.00035077	     97.97284916
     14.40000000	     19.60825493	     -7.64134327	    160.33223982	      0.14509225	      1.10550776	     -0.22202640	     17.17912051	     -2.16060054	     -6.38607310	     74.11892532	    -11.45532655	    -27.76671976	      0.00000000	     17.86386056	     -8.14385192	      4.32634249	     75.96243791	    -14.33046451	    -21.94642932	      0.00000000	    -20.55712190	      2.17862440	     -1.07020485	    176.74862441	    197.64388767	    124.06995398	    150.00035077	     98.20672958	    189.47517846	    205.27705323	   -231.15331191	    149.99207512	     97.97442309
     14.41666670	     19.76971797	     -7.70842352	    160.35813421	      0.14378543	      1.10528290	     -0.22260919	     17.18899319	     -2.17668367	     -6.50978465	     73.89472323	    -11.54791622	    -27.76842827	      0.00000000	     17.82133752	     -8.15361720	      4.18465902	     75.70079433	    -14.27254486	    -22.07500239	      0.00000000	    -20.54038856	      2.16026368	     -1.03422564	    176.84158405	    197.67483694	    124.09097387	    150.00035077	     98.20885963	    189.55755680	    205.26018261	   -231.15200981	    150.00035077	     97.97656754
     14.43333330	     19.90750705	     -7.78958980	    160.43789245	      0.14271897	      1.10503321	     -0.22315013	     17.20945534	     -2.14602464	     -6.53120541	     73.75871524	    -11.57837230	    -27.75667531	      0.00000000	     17.85754669	     -8.12671965	      4.12331062	     75.55604647	    -14.20812594	    -22.13644515	      0.00000000	    -20.65535917	      2.13475798	     -0.99262210	    176.88535044	    197.68461940	    124.11114930	    150.00035077	     98.21053866	    189.58314017	    205.24354774	   -231.14376605	    150.00035077	     97.97802724
     14.45000000	     20.07352103	     -7.86912920	    160.43923950	      0.14135250	      1.10473669	     -0.22371977	     17.17193835	     -2.19747671	     -6.62172999	     73.52472915	    -11.77085838	    -27.68903182	      0.00000000	     17.77743020	     -8.09116683	      3.98254460	     75.25166252	    -13.97115176	    -22.30864533	      0.00000000	    -20.58128436	      2.10177674	     -0.91337494	    177.00625926	    197.68741320	    124.15224024	    150.00035077	     98.21235977	    189.70105633	    205.15317145	   -231.13985038	    150.00035077	     97.98093918
     14.46666670	     20.19411516	     -7.96525051	    160.43957739	      0.14020071	      1.10451727	     -0.22430291	     17.14205707	     -2.22635116	     -6.60484985	     73.36190981	    -11.98311306	    -27.63499359	      0.00000000	     17.74297609	     -8.01127579	      3.86803240	     75.08078374	    -13.61440415	    -22.45875272	      0.00000000	    -20.63518353	      2.03262372	     -0.82216644	    177.10382749	    197.64187173	    124.23582200	    150.00035077	     98.21628038	    189.82164290	    204.98789759	   -231.11829105	    150.00035077	     97.98780960
     14.48333330	     20.35037189	     -8.03104173	    160.49570882	      0.13929715	      1.10424975	     -0.22474763	     17.16177060	     -2.20913197	     -6.63163068	     73.25361808	    -12.00213259	    -27.63102995	      0.00000000	     17.77043354	     -7.98122231	      3.81088029	     74.82821370	    -13.53838312	    -22.46166550	      0.00000000	    -20.74859051	      2.03295255	     -0.78586168	    177.13193194	    197.64558105	    124.25977946	    150.00035077	     98.21761295	    189.84799194	    204.96874650	   -231.10977007	    150.00035077	     97.98968321
     14.50000000	     20.39328059	     -8.15174300	    160.32264701	      0.13814805	      1.10412118	     -0.22560848	     17.08949182	     -2.25780081	     -6.46899214	     73.08993668	    -12.33734122	    -27.66569215	      0.00000000	     17.56482683	     -7.91724236	      3.50243785	     74.52814088	    -12.59184611	    -21.97780621	      0.00000000	    -20.80599846	      1.85558499	     -0.56091723	    177.21811877	    197.52938300	    124.56924522	    150.00035077	     98.22273067	    190.18885882	    204.62976874	   -231.07353048	    150.00035077	     98.02270661
     14.51666670	     20.53458580	     -8.22124372	    160.36318532	      0.13702208	      1.10390855	     -0.22617567	     17.08200182	     -2.25413383	     -6.48461114	     72.93258746	    -12.49320774	    -27.54815030	      0.00000000	     17.56793339	     -7.88158580	      3.43183903	     74.30618285	    -12.17606811	    -22.08824567	      0.00000000	    -20.84611057	      1.82128332	     -0.56262058	    177.24047839	    197.53533578	    124.60562941	    150.00035077	     98.22080677	    190.25534544	    204.65897878	   -231.06822948	    150.00035077	     98.03082310
     14.53333330	     20.64287174	     -8.31286827	    160.32121964	      0.13622915	      1.10378277	     -0.22672152	     17.15417668	     -2.27346495	     -6.40492728	     72.87724432	    -12.65091406	    -27.44195495	      0.00000000	     17.58142821	     -7.85874206	      3.26711013	     74.16162793	    -11.36178986	    -21.63355285	      0.00000000	    -21.01925336	      1.74177983	     -0.50185211	    177.31765655	    197.49274071	    124.77985957	    150.00035077	     98.20924457	    190.46834699	    204.59611461	   -231.05887103	    150.00035077	     98.05925569
